<?xml version="1.0" standalone="no"?>
<!DOCTYPE svg PUBLIC "-//W3C//DTD SVG 20010904//EN"
 "http://www.w3.org/TR/2001/REC-SVG-20010904/DTD/svg10.dtd">
<svg version="1.0" xmlns="http://www.w3.org/2000/svg"
 width="1920.000000pt" height="1080.000000pt" viewBox="0 0 1920.000000 1080.000000"
 preserveAspectRatio="xMidYMid meet">

<g transform="translate(0.000000,1080.000000) scale(0.100000,-0.100000)"
fill="#000000" stroke="none">
<path d="M8500 10702 c-154 -7 -312 -48 -445 -114 -225 -113 -374 -280 -442
-498 -14 -47 -27 -86 -29 -88 -1 -2 -33 -10 -71 -19 -152 -33 -278 -124 -332
-237 -21 -46 -22 -46 -71 -46 -87 0 -277 -30 -362 -56 -231 -73 -387 -202
-495 -410 -65 -124 -96 -218 -172 -521 -74 -296 -104 -388 -156 -493 -99 -197
-229 -297 -521 -400 l-109 -38 58 -7 c89 -11 226 5 350 41 13 4 6 -13 -26 -63
-99 -153 -327 -586 -327 -620 0 -5 -39 -1 -87 9 -100 20 -237 23 -315 7 -122
-25 -251 -118 -313 -224 -15 -25 -30 -45 -33 -45 -4 1 -27 5 -52 10 -60 12
-171 -4 -237 -35 -68 -31 -148 -106 -181 -170 -22 -41 -26 -64 -27 -127 l0
-77 -81 -26 c-180 -58 -333 -183 -428 -346 -39 -69 -75 -181 -87 -281 -21
-165 24 -370 117 -532 l46 -78 -26 -92 c-40 -140 -49 -203 -43 -306 8 -162 56
-272 167 -386 88 -91 189 -153 330 -204 73 -27 76 -29 125 -102 217 -325 467
-513 768 -579 67 -15 129 -20 228 -21 l136 0 38 -86 c74 -174 214 -421 366
-649 141 -210 315 -425 509 -626 l75 -77 -48 -48 c-59 -58 -112 -162 -133
-262 -21 -98 -13 -265 16 -370 77 -270 283 -473 532 -523 l61 -13 17 -49 c42
-124 121 -245 221 -341 150 -142 340 -230 579 -269 120 -19 346 -19 470 0 202
30 394 106 490 192 l50 45 45 -18 c156 -59 415 85 415 230 0 26 2 28 28 21 79
-21 188 -34 274 -35 161 0 249 27 336 105 l47 42 184 17 c983 90 1874 475
2614 1129 80 71 190 177 245 236 l101 108 73 18 c109 26 207 67 363 150 367
197 423 217 768 270 89 13 194 34 232 46 156 48 272 130 368 258 49 67 111
199 126 269 18 88 13 244 -15 397 -31 178 -40 329 -25 420 32 184 79 283 240
500 134 180 153 210 201 303 61 121 82 213 83 357 0 149 -18 228 -80 355 -63
127 -181 249 -293 303 -130 62 -262 72 -389 31 -36 -12 -56 -15 -58 -8 -2 6
-27 46 -55 90 -105 160 -261 286 -416 338 l-67 22 -22 70 c-12 38 -38 129 -59
203 -35 127 -36 137 -23 175 8 22 19 41 25 43 6 2 17 -18 25 -44 14 -46 17
-49 64 -61 73 -19 78 -20 96 -21 10 -1 32 -33 57 -86 23 -47 45 -85 50 -85 9
0 35 83 47 152 5 26 13 39 29 43 36 11 90 37 108 53 10 8 21 37 24 63 4 27 10
49 15 49 30 0 91 -146 105 -251 l7 -52 23 63 c34 89 57 215 51 271 -11 92 -72
171 -145 185 l-32 7 0 127 c0 243 -51 431 -152 557 -36 46 -227 205 -239 201
-10 -4 -176 -213 -190 -240 -73 -136 -82 -366 -25 -603 14 -55 21 -101 17
-103 -5 -1 -23 -14 -42 -28 l-34 -25 -23 53 c-138 313 -291 590 -453 820 -287
405 -610 736 -1004 1029 -55 40 -102 77 -105 80 -28 32 -373 240 -555 335
-247 127 -593 260 -875 336 -63 17 -118 35 -121 40 -4 6 -10 33 -13 60 -10 71
-51 175 -92 231 -43 59 -133 118 -214 141 -35 10 -103 18 -163 19 l-102 3 -54
43 c-73 57 -137 88 -229 112 -100 25 -248 25 -366 -1 -49 -11 -90 -19 -91 -17
-2 1 -9 16 -18 32 -81 160 -323 295 -557 311 -41 3 -88 6 -105 7 -16 1 -55 1
-85 -1z m5480 -2752 c0 -33 -105 -190 -127 -190 -41 0 30 155 86 185 32 17 41
18 41 5z m151 -293 c58 -39 81 -84 77 -145 -15 -186 -298 -169 -298 18 0 59
27 101 81 128 56 28 98 28 140 -1z m-880 -418 c87 -67 157 -124 154 -127 -3
-3 -89 -41 -192 -84 l-186 -78 -169 127 c-92 70 -164 131 -160 134 15 15 368
157 380 153 7 -2 85 -58 173 -125z m610 -6 c11 -30 -1 -49 -26 -40 -19 8 -29
32 -21 52 9 24 36 17 47 -12z m-991 -191 c69 -52 129 -98 134 -102 4 -5 0 -64
-9 -132 -9 -67 -18 -136 -20 -153 -2 -16 -11 -93 -20 -170 l-17 -140 -101
-158 c-55 -86 -102 -155 -104 -153 -2 2 3 54 11 115 9 62 16 120 16 129 0 11
-37 45 -95 87 -89 65 -95 72 -91 100 3 17 23 181 46 365 23 184 44 341 46 349
5 14 -6 21 204 -137z m1033 42 c16 -38 31 -91 34 -118 5 -43 4 -48 -13 -45
-23 5 -73 143 -74 202 0 57 20 42 53 -39z m-477 -11 c-2 -10 -7 -43 -11 -74
l-6 -57 -189 -116 c-222 -137 -223 -137 -216 -105 3 13 10 64 16 114 6 49 13
92 16 94 7 7 377 160 387 161 5 0 6 -8 3 -17z m-1428 -544 c89 -68 158 -127
154 -130 -20 -20 -374 -159 -386 -152 -40 24 -325 247 -321 251 11 12 371 160
381 157 6 -2 83 -58 172 -126z m1047 80 l44 -31 -56 -87 c-62 -96 -78 -117
-70 -86 3 11 11 68 18 128 7 59 15 107 17 107 2 0 23 -14 47 -31z m-1417 -284
c72 -55 132 -107 132 -115 0 -8 -17 -148 -39 -311 l-38 -295 -102 -138 c-68
-92 -105 -134 -114 -129 -31 19 -177 135 -177 141 0 14 121 959 126 980 l5 23
37 -28 c21 -15 97 -73 170 -128z m1647 -434 c-36 -276 -65 -508 -65 -515 0
-12 -388 -181 -396 -173 -2 2 10 108 27 237 24 187 35 241 52 270 47 79 442
688 444 686 1 -1 -27 -228 -62 -505z m-1100 452 c-4 -21 -14 -100 -24 -176
-10 -75 -21 -140 -24 -143 -3 -4 -25 8 -48 25 l-42 31 -160 -216 c-88 -118
-161 -213 -163 -211 -3 3 66 559 70 564 4 4 381 162 389 162 4 1 5 -16 2 -36z
m-4052 -600 c12 -14 18 -65 27 -253 l12 -234 -22 -18 c-28 -23 -43 -23 -63 0
-13 14 -18 62 -27 252 l-11 235 22 17 c27 23 42 23 62 1z m3908 -517 c-27
-208 -53 -382 -58 -387 -13 -13 -374 -161 -380 -155 -6 6 25 274 36 321 9 32
443 623 448 609 2 -5 -19 -179 -46 -388z m784 178 c-14 -109 -27 -199 -28
-201 -5 -5 -148 109 -145 116 12 30 193 300 196 292 2 -5 -9 -98 -23 -207z
m-3858 140 c13 -20 6 -36 -78 -200 -119 -231 -134 -254 -162 -254 -12 0 -27 4
-33 8 -31 21 -22 47 77 241 56 108 109 204 117 214 20 23 61 18 79 -9z m-1510
-254 c68 -107 123 -199 123 -206 0 -22 -32 -45 -58 -42 -22 2 -44 31 -130 163
-144 224 -154 242 -148 263 9 28 47 43 71 27 11 -6 75 -99 142 -205z m908
-320 c307 -79 544 -315 631 -626 12 -44 18 -129 24 -329 10 -308 13 -328 95
-532 30 -75 51 -141 47 -145 -4 -4 -172 -113 -372 -242 l-365 -234 -130 133
c-148 151 -210 192 -441 295 -166 73 -248 126 -335 217 -119 123 -201 274
-234 433 -20 93 -19 261 1 358 71 345 352 621 701 687 103 19 272 13 378 -15z
m1220 10 c14 -16 16 -25 8 -43 -13 -28 -385 -267 -416 -267 -45 0 -64 52 -29
83 42 37 379 247 398 247 11 0 29 -9 39 -20z m2009 -152 c-9 -79 -19 -145 -20
-147 -2 -2 -30 18 -63 43 l-61 47 78 103 c42 57 79 102 81 100 2 -1 -5 -67
-15 -146z m-4665 -49 c108 -56 204 -108 214 -117 34 -30 15 -82 -29 -82 -29 0
-403 195 -426 222 -10 11 -18 24 -18 29 0 13 38 49 52 49 6 0 99 -46 207 -101z
m2899 -595 c25 -17 29 -56 7 -74 -15 -13 -238 -29 -412 -30 -77 0 -84 2 -98
24 -20 30 -7 63 28 71 12 2 105 9 207 13 102 5 199 10 215 10 17 1 41 -5 53
-14z m-2806 -138 c13 -31 5 -54 -24 -65 -36 -14 -457 -32 -478 -21 -30 16 -35
49 -12 73 18 17 39 21 159 27 76 4 184 8 241 8 100 2 103 1 114 -22z m189
-587 c8 -15 8 -28 1 -43 -14 -30 -383 -266 -417 -266 -31 0 -55 42 -39 68 6 9
96 72 200 139 197 128 233 142 255 102z m449 -409 c11 -11 20 -24 20 -30 0
-16 -210 -417 -225 -430 -20 -17 -55 -9 -72 16 -13 20 -6 37 90 224 57 111
111 210 120 221 21 24 42 24 67 -1z"/>
<path d="M4210 8976 c-238 -54 -398 -291 -320 -474 46 -108 149 -164 300 -165
141 -1 285 53 385 144 140 128 151 260 33 385 -53 57 -132 98 -218 114 -66 12
-110 11 -180 -4z"/>
<path d="M3834 7764 c-54 -19 -120 -76 -144 -125 -28 -54 -26 -140 4 -205 91
-196 313 -239 422 -81 41 59 54 103 54 183 0 99 -43 175 -124 216 -53 27 -156
33 -212 12z"/>
<path d="M16090 5591 c-175 -35 -280 -249 -216 -440 27 -80 103 -154 180 -176
117 -34 234 -5 325 80 82 77 113 191 81 292 -51 155 -227 272 -370 244z"/>
<path d="M2989 5002 c-156 -167 -227 -372 -215 -627 7 -162 33 -289 97 -475
32 -92 56 -182 65 -244 27 -190 71 -308 158 -423 113 -149 309 -267 553 -334
81 -22 117 -46 162 -104 14 -19 294 -274 621 -566 579 -519 596 -534 627 -600
18 -37 48 -80 66 -95 38 -32 103 -63 133 -64 19 0 26 -17 64 -162 23 -90 45
-168 49 -174 4 -8 34 -4 104 16 54 15 100 30 104 33 3 3 -14 82 -37 174 l-43
168 36 39 c73 79 88 216 35 326 -14 30 -34 73 -43 95 -9 22 -26 51 -38 64 -12
13 -210 192 -440 398 l-418 375 64 32 c76 39 204 126 238 162 l24 27 -30 -6
c-174 -37 -338 -46 -453 -26 l-65 12 -196 175 c-108 96 -208 179 -222 184 -19
6 -55 52 -121 151 -169 253 -274 367 -449 487 -197 135 -304 282 -376 517 -24
79 -27 103 -27 238 1 123 4 162 22 220 11 38 19 71 18 73 -2 1 -32 -28 -67
-66z m963 -1669 c19 -16 350 -311 737 -658 l703 -630 -59 -6 c-74 -9 -179 -44
-219 -75 -48 -36 -84 -116 -84 -187 0 -32 -4 -57 -9 -55 -5 2 -279 245 -609
540 -654 586 -632 563 -635 674 -1 27 14 122 33 212 26 125 39 168 56 187 29
32 43 31 86 -2z m1361 -1349 c53 -18 127 -91 152 -149 43 -104 25 -223 -46
-293 l-40 -41 44 -170 45 -169 -42 -11 c-22 -5 -44 -7 -47 -3 -4 4 -23 70 -43
147 -20 77 -39 150 -42 163 -4 14 -14 22 -28 22 -37 0 -124 50 -156 88 -83
101 -91 252 -20 352 23 33 112 80 150 80 15 0 47 -7 73 -16z"/>
<path d="M3955 3031 c-7 -22 7 -62 36 -102 19 -27 19 -49 -1 -49 -5 0 -18 16
-30 36 -26 41 -38 38 -20 -6 16 -38 56 -71 77 -63 21 8 12 73 -17 113 -12 16
-20 38 -18 47 3 15 4 15 20 -1 10 -9 22 -25 27 -34 14 -26 24 -7 11 20 -30 57
-73 77 -85 39z"/>
<path d="M4082 2918 c-32 -41 -23 -114 20 -164 17 -19 39 -34 49 -34 27 0 24
19 -5 30 -28 10 -56 47 -56 73 0 16 7 14 44 -17 24 -20 47 -36 50 -36 3 0 6
13 6 29 0 82 -73 162 -108 119z m68 -47 c5 -11 10 -30 10 -42 0 -22 -1 -22
-30 6 -16 16 -30 35 -30 42 0 20 38 15 50 -6z"/>
<path d="M4240 2796 c0 -7 11 -21 25 -30 25 -17 51 -64 40 -74 -3 -3 -18 7
-33 21 -33 32 -48 34 -62 8 -18 -35 23 -111 60 -111 10 0 21 -10 24 -22 5 -20
8 -21 16 -7 5 9 12 42 16 72 8 67 -6 109 -46 137 -33 24 -40 25 -40 6z m54
-129 c15 -23 -8 -46 -31 -31 -25 16 -37 39 -29 59 6 15 9 16 28 3 12 -8 27
-22 32 -31z"/>
<path d="M4380 2686 c0 -3 -7 -37 -15 -76 -10 -47 -12 -77 -6 -88 11 -19 9
-22 31 51 9 30 16 37 37 37 18 0 24 5 21 18 -2 10 -12 17 -25 16 -12 0 -20 3
-17 7 6 10 -6 39 -17 39 -5 0 -9 -2 -9 -4z"/>
<path d="M4472 2567 c-19 -23 -24 -66 -12 -104 15 -46 57 -93 83 -93 27 0 18
34 -11 38 -42 6 -69 95 -37 122 20 16 43 6 57 -25 12 -28 28 -33 28 -10 0 21
-59 85 -80 85 -10 0 -22 -6 -28 -13z"/>
<path d="M4630 2536 c0 -2 -9 -49 -21 -105 -20 -97 -20 -139 0 -127 5 3 12 26
16 51 7 50 26 65 51 44 13 -11 15 -26 10 -90 -4 -45 -3 -79 2 -83 12 -7 32 70
32 122 0 44 -31 92 -60 92 -15 0 -17 5 -10 36 9 38 4 64 -11 64 -5 0 -9 -2 -9
-4z"/>
<path d="M5200 1892 c-104 -52 -109 -222 -8 -294 47 -33 126 -32 163 2 39 36
55 73 55 124 0 79 -40 143 -107 172 -42 18 -61 18 -103 -4z m131 -29 c36 -31
68 -94 69 -135 0 -46 -30 -108 -52 -108 -55 0 -117 87 -118 165 0 44 31 105
54 105 8 0 29 -12 47 -27z"/>
<path d="M15645 4566 c-233 -45 -404 -200 -474 -429 -44 -144 -34 -277 30
-404 106 -210 386 -300 688 -223 293 75 493 288 536 572 9 62 -16 156 -61 224
-123 186 -464 309 -719 260z"/>
</g>
</svg>
