<?xml version="1.0" standalone="no"?>
<!DOCTYPE svg PUBLIC "-//W3C//DTD SVG 20010904//EN"
 "http://www.w3.org/TR/2001/REC-SVG-20010904/DTD/svg10.dtd">
<svg version="1.0" xmlns="http://www.w3.org/2000/svg"
 width="500.000000pt" height="500.000000pt" viewBox="0 0 500.000000 500.000000"
 preserveAspectRatio="xMidYMid meet">
<metadata>
Created by potrace 1.14, written by Peter Selinger 2001-2017
</metadata>
<g transform="translate(0.000000,500.000000) scale(0.100000,-0.100000)"
fill="#000000" stroke="none">
<path d="M2346 4834 l-139 -145 43 -44 c24 -25 51 -45 60 -45 9 0 31 16 50 35
57 59 61 52 58 -92 l-3 -128 -77 -6 c-187 -15 -439 -83 -633 -169 -132 -59
-321 -179 -428 -271 -38 -33 -71 -59 -75 -59 -15 0 -194 188 -188 198 3 6 30
8 64 6 79 -7 84 -2 76 84 l-7 72 -206 -2 -206 -3 -3 -207 -2 -208 75 0 75 0 0
64 c0 36 5 68 11 71 11 7 189 -162 189 -180 0 -5 -25 -39 -56 -75 -210 -245
-386 -634 -424 -940 -6 -47 -14 -112 -18 -145 l-7 -60 -124 0 c-67 0 -127 3
-132 6 -5 3 14 29 43 58 l52 52 -52 52 -52 52 -151 -152 -152 -151 144 -141
c79 -77 151 -141 159 -141 9 0 36 20 60 45 l44 45 -47 48 c-26 27 -44 51 -41
55 4 4 63 7 130 7 120 0 124 -1 128 -22 3 -13 12 -80 20 -149 15 -120 55 -301
75 -344 6 -11 26 -63 46 -115 64 -170 175 -357 295 -501 33 -39 60 -79 60 -88
0 -22 -175 -195 -189 -187 -6 4 -11 37 -11 77 l0 69 -37 0 c-21 0 -55 -3 -75
-6 l-38 -7 0 -208 0 -209 210 0 210 0 0 75 0 75 -64 0 c-37 0 -68 5 -72 11
-10 17 165 189 185 181 9 -3 50 -33 91 -66 259 -206 547 -336 885 -401 17 -3
75 -10 130 -17 55 -6 102 -13 104 -14 6 -5 11 -238 5 -258 -5 -16 -14 -11 -59
34 -61 60 -70 59 -126 -11 l-32 -41 144 -144 c79 -79 147 -144 152 -144 4 0
72 66 151 146 l144 147 -45 48 c-25 27 -51 49 -57 49 -5 0 -32 -21 -58 -47
-46 -45 -47 -46 -53 -22 -3 13 -5 74 -3 134 l3 110 95 11 c270 32 528 114 758
241 86 48 212 137 338 238 l24 19 95 -94 c52 -52 95 -98 95 -102 0 -5 -31 -8
-69 -8 -38 0 -71 -4 -73 -10 -1 -5 -2 -41 0 -80 l4 -70 211 2 212 3 0 210 0
210 -75 0 -75 0 -3 -60 c-1 -33 -5 -66 -8 -74 -6 -18 -184 155 -184 179 0 8
27 48 60 88 242 296 390 663 428 1057 l7 70 128 1 c70 0 130 -3 133 -8 3 -5
-15 -32 -41 -59 l-47 -51 43 -44 c24 -24 50 -44 59 -44 8 0 79 64 158 143
l142 142 -142 150 c-79 83 -148 151 -154 153 -6 1 -32 -20 -58 -48 l-48 -52
46 -47 c25 -26 46 -50 46 -54 0 -4 -61 -7 -135 -7 l-135 0 0 34 c0 64 -40 301
-66 391 -78 266 -206 515 -361 700 -85 102 -86 91 18 189 49 47 97 86 105 86
11 0 14 -16 14 -70 l0 -71 73 3 72 3 3 213 2 212 -210 0 -210 0 0 -75 0 -75
53 -2 c71 -2 74 -2 83 -11 8 -8 -164 -187 -180 -187 -5 0 -42 27 -81 59 -225
186 -516 329 -808 395 -101 24 -123 27 -232 40 l-100 11 0 128 c0 71 3 131 6
133 3 2 25 -17 49 -41 24 -25 51 -45 60 -45 9 0 36 20 60 45 l44 45 -144 145
c-80 80 -152 145 -160 144 -8 0 -78 -66 -154 -145z m384 -608 c374 -50 710
-216 984 -484 272 -267 446 -606 508 -987 7 -45 12 -164 13 -270 0 -158 -4
-209 -23 -303 -121 -600 -532 -1093 -1092 -1307 -227 -87 -442 -122 -694 -112
-551 20 -1060 306 -1368 766 -203 304 -298 619 -298 989 0 706 444 1342 1122
1611 99 39 257 79 378 96 128 17 341 18 470 1z"/>
<path d="M2285 4089 c-236 -32 -479 -126 -695 -270 -131 -87 -325 -282 -412
-414 -206 -312 -289 -607 -275 -975 9 -239 51 -407 153 -620 86 -179 170 -297
313 -441 229 -228 494 -371 815 -441 86 -19 132 -22 316 -22 184 0 230 3 316
22 207 45 410 131 589 249 135 90 328 283 418 418 118 179 204 382 249 589 19
86 22 132 22 316 0 184 -3 230 -22 316 -45 207 -131 410 -249 589 -90 135
-283 328 -418 418 -181 119 -381 204 -584 248 -111 23 -419 34 -536 18z m279
-175 c19 -19 22 -124 4 -142 -18 -18 -133 -16 -148 3 -19 23 -8 124 15 141 26
19 110 18 129 -2z m-333 -100 c9 -39 10 -61 2 -73 -12 -19 -105 -46 -128 -38
-27 11 -55 118 -37 146 13 18 112 41 134 30 10 -5 22 -32 29 -65z m637 61 c66
-20 76 -38 56 -104 -19 -65 -35 -73 -104 -52 -63 19 -70 34 -50 108 10 35 23
53 46 63 0 0 24 -7 52 -15z m-975 -174 c15 -27 27 -56 27 -64 0 -17 -97 -77
-115 -71 -11 5 -75 104 -75 117 0 12 94 67 116 67 15 0 29 -14 47 -49z m1323
23 c24 -14 46 -30 49 -35 8 -12 -42 -107 -63 -118 -13 -7 -31 -2 -70 21 -29
16 -52 36 -52 44 0 18 27 73 48 97 20 23 36 22 88 -9z m-1608 -217 c23 -23 42
-51 42 -62 0 -26 -69 -95 -94 -95 -21 0 -106 76 -106 94 0 14 91 106 105 106
6 0 30 -19 53 -43z m1894 -4 c26 -26 48 -52 48 -58 0 -19 -85 -95 -107 -95
-24 0 -93 72 -93 97 0 18 77 103 94 103 6 0 32 -21 58 -47z m-932 -182 l0 -78
93 -7 c92 -7 207 -22 240 -32 13 -4 17 -16 17 -52 0 -26 -3 -57 -6 -70 l-7
-23 -168 7 -169 7 0 -251 0 -250 33 -7 c274 -59 367 -167 368 -427 1 -142 -19
-213 -78 -278 -52 -58 -118 -86 -240 -102 l-83 -11 0 -78 0 -79 -70 0 -70 0 0
78 0 79 -102 7 c-57 3 -142 13 -190 22 l-88 16 0 32 c0 17 3 48 7 70 l6 38
183 -7 184 -7 0 254 0 255 -83 22 c-240 63 -318 166 -318 416 0 178 44 280
144 332 38 19 151 43 210 43 l47 0 0 80 0 80 70 0 70 0 0 -79z m1158 -111 c18
-30 31 -59 29 -65 -5 -17 -99 -76 -116 -73 -18 4 -81 106 -75 122 6 15 105 75
119 72 6 -1 25 -27 43 -56z m-2359 30 c70 -35 74 -44 47 -99 -38 -74 -48 -79
-104 -48 -61 33 -69 47 -52 86 16 38 48 81 61 81 5 0 27 -9 48 -20z m-141
-315 c28 -9 56 -23 60 -33 13 -23 -16 -120 -38 -132 -24 -13 -117 15 -130 39
-18 34 18 124 56 141 0 0 24 -7 52 -15z m2628 -10 c9 -14 17 -48 18 -77 l1
-53 -58 -15 c-73 -18 -87 -10 -106 60 -17 63 -10 80 45 97 61 18 82 16 100
-12z m-2628 -337 c7 -7 12 -39 12 -73 0 -34 -5 -66 -12 -73 -7 -7 -39 -12 -75
-12 -59 0 -64 2 -73 26 -6 14 -10 45 -10 69 0 34 5 47 22 59 27 19 119 21 136
4z m2676 -4 c11 -10 16 -34 16 -74 0 -71 -11 -80 -94 -80 -66 0 -76 12 -76 94
0 66 11 75 87 76 34 0 57 -5 67 -16z m-56 -350 c36 -14 41 -38 22 -106 -15
-52 -36 -61 -99 -42 -64 19 -73 34 -54 98 22 78 43 86 131 50z m-2570 -17 c7
-15 14 -46 15 -69 2 -36 -2 -44 -23 -55 -14 -6 -44 -15 -67 -19 -37 -6 -43 -4
-59 21 -11 18 -18 47 -19 78 0 48 1 50 35 63 57 21 103 14 118 -19z m125 -345
c16 -29 26 -59 23 -67 -4 -12 -95 -65 -110 -65 -9 0 -76 104 -76 118 0 18 91
73 115 70 12 -2 31 -23 48 -56z m2297 33 c27 -13 51 -29 55 -35 8 -13 -44
-109 -65 -120 -24 -13 -114 39 -118 67 -4 28 45 113 64 113 8 0 37 -11 64 -25z
m-2088 -282 c21 -20 38 -46 38 -58 0 -20 -77 -105 -95 -105 -13 0 -105 92
-105 104 0 19 84 96 104 96 11 0 37 -17 58 -37z m1895 -5 c24 -23 43 -47 43
-52 0 -13 -91 -106 -104 -106 -19 0 -96 84 -96 104 0 26 68 96 94 96 11 0 40
-19 63 -42z m-1638 -203 c27 -13 51 -31 55 -40 7 -19 -39 -114 -58 -121 -17
-7 -115 42 -122 60 -5 13 26 86 48 114 14 17 22 16 77 -13z m1368 -38 l32 -57
-54 -36 c-30 -20 -61 -34 -69 -31 -20 8 -77 98 -73 117 3 18 95 71 117 67 8
-1 29 -28 47 -60z m-1056 -83 c30 -9 57 -21 60 -26 11 -17 -22 -128 -41 -138
-23 -12 -119 15 -127 37 -7 18 13 111 28 130 14 16 14 16 80 -3z m728 3 c6 -8
16 -37 23 -66 14 -63 5 -76 -70 -95 -59 -16 -73 -10 -91 43 -15 45 -14 86 2
99 14 12 73 30 103 31 12 1 26 -5 33 -12z m-348 -47 c16 -9 19 -22 19 -73 0
-36 -5 -68 -12 -75 -18 -18 -123 -15 -142 4 -18 18 -21 88 -6 128 9 24 15 26
65 26 31 0 65 -5 76 -10z"/>
<path d="M2290 3052 c-53 -26 -73 -77 -74 -181 0 -104 14 -151 59 -190 29 -25
115 -61 147 -61 4 0 8 101 8 225 l0 225 -52 0 c-30 0 -68 -8 -88 -18z"/>
<path d="M2570 2164 l0 -237 54 6 c118 12 159 68 160 217 0 143 -30 192 -141
229 -34 12 -65 21 -68 21 -3 0 -5 -106 -5 -236z"/>
</g>
</svg>
